# xmcd
#
# Track frame offsets:
#	150
#	23935
#	50333
#	82352
#	101926
#	125922
#	149472
#	171298
#	192899
#	232420
#	253190
#
# Disc length: 3657 seconds
# Revision: 0
# Processed by: cddbd v1.5.2PL0 Copyright (c) Steve Scherf et al.
# Submitted via: dBpowerAMP V12.0
#
DISCID=b00e470b
DTITLE=The Mollys - Moon Over The Interstate
DYEAR=1900
DGENRE=
TTITLE0=The Sierra Madre
TTITLE1=Rosie
TTITLE2=The Lang Town Unfortunate Rake
TTITLE3=Cash For Gpld
TTITLE4=Up Spoke The Baby
TTITLE5=Old Tramp Steamer
TTITLE6=Mi Casita
TTITLE7=Moon Over The Interstate
TTITLE8=Holding On
TTITLE9=Dance With Me Johnny
TTITLE10=La Llorona
EXTD=
EXTT0=
EXTT1=
EXTT2=
EXTT3=
EXTT4=
EXTT5=
EXTT6=
EXTT7=
EXTT8=
EXTT9=
EXTT10=
PLAYORDER=
